<svg width="85" height="50" viewBox="0 0 85 50" fill="none" xmlns="http://www.w3.org/2000/svg">
<path fill-rule="evenodd" clip-rule="evenodd" d="M18.1565 17.4405C18.1565 17.094 17.9652 16.7668 17.6591 16.5935L9.56614 11.8769C9.43221 11.7999 9.27915 11.7614 9.12609 11.7422C9.10696 11.7422 9.04956 11.7422 9.04956 11.7422C8.89651 11.7422 8.74345 11.7999 8.60952 11.8769L0.497439 16.5742C0.191323 16.7475 0 17.0748 0 17.4405L0.0191323 30.0694C0.0191323 30.2427 0.114794 30.4159 0.267852 30.4929C0.42091 30.5892 0.612233 30.5892 0.746159 30.4929L5.56749 27.7207C5.87361 27.5475 6.06493 27.2202 6.06493 26.8737V20.9635C6.06493 20.617 6.25625 20.2897 6.56237 20.1165L8.60952 18.9229C8.76258 18.8266 8.93477 18.7881 9.10696 18.7881C9.27915 18.7881 9.45134 18.8266 9.58527 18.9229L11.6324 20.1165C11.9385 20.2897 12.1299 20.617 12.1299 20.9635V26.8737C12.1299 27.2202 12.3212 27.5475 12.6273 27.7207L17.4104 30.4929C17.5634 30.5892 17.7547 30.5892 17.9078 30.4929C18.0609 30.4159 18.1565 30.2427 18.1565 30.0694V17.4405Z" fill="#303030"/>
<path fill-rule="evenodd" clip-rule="evenodd" d="M57.1479 0.0577539C56.9948 -0.0192513 56.8035 -0.0192513 56.6695 0.0577539C56.5165 0.15401 56.4208 0.308021 56.4208 0.481283V12.9946C56.4208 13.1101 56.3634 13.2256 56.2486 13.3027C56.1338 13.3604 56.0191 13.3604 55.9043 13.3027L53.8762 12.1283C53.5701 11.9551 53.2066 11.9551 52.9005 12.1283L44.7884 16.8449C44.4823 17.0182 44.291 17.3454 44.291 17.6919V27.1058C44.291 27.4524 44.4823 27.7796 44.7884 27.9529L52.9005 32.6695C53.2066 32.8427 53.5701 32.8427 53.8762 32.6695L61.9883 27.9529C62.2944 27.7796 62.4858 27.4524 62.4858 27.1058V3.6385C62.4858 3.27272 62.2944 2.94545 61.9883 2.77219L57.1479 0.0577539ZM56.4017 24.0064C56.4017 24.1026 56.3634 24.1796 56.2869 24.2181L53.5127 25.8353C53.4362 25.8738 53.3405 25.8738 53.264 25.8353L50.4898 24.2181C50.4133 24.1796 50.375 24.0834 50.375 24.0064V20.7722C50.375 20.6759 50.4133 20.5989 50.4898 20.5604L53.264 18.9433C53.3405 18.9048 53.4362 18.9048 53.5127 18.9433L56.2869 20.5604C56.3634 20.5989 56.4017 20.6952 56.4017 20.7722V24.0064Z" fill="#303030"/>
<path fill-rule="evenodd" clip-rule="evenodd" d="M84.1428 20.6951C84.449 20.5218 84.6211 20.1946 84.6211 19.848V17.5571C84.6211 17.2106 84.4298 16.8833 84.1428 16.7101L76.0881 12.0128C75.782 11.8395 75.4185 11.8395 75.1124 12.0128L67.0003 16.7293C66.6942 16.9026 66.5029 17.2299 66.5029 17.5764V26.9903C66.5029 27.3368 66.6942 27.6641 67.0003 27.8373L75.055 32.4576C75.3611 32.6309 75.7246 32.6309 76.0116 32.4576L80.8903 29.724C81.0434 29.647 81.1391 29.4737 81.1391 29.3004C81.1391 29.1272 81.0434 28.9539 80.8903 28.8769L72.74 24.1603C72.5869 24.0641 72.4913 23.9101 72.4913 23.7368V20.7914C72.4913 20.6181 72.5869 20.4448 72.74 20.3678L75.2846 18.9047C75.4377 18.8085 75.629 18.8085 75.782 18.9047L78.3266 20.3678C78.4797 20.4641 78.5753 20.6181 78.5753 20.7914V23.1015C78.5753 23.2748 78.671 23.448 78.8241 23.525C78.9771 23.6213 79.1684 23.6213 79.3215 23.525L84.1428 20.6951Z" fill="#303030"/>
<path fill-rule="evenodd" clip-rule="evenodd" d="M75.4764 20.2515C75.5338 20.213 75.6104 20.213 75.6678 20.2515L77.2175 21.1563C77.2749 21.1948 77.3131 21.2526 77.3131 21.3296V23.1392C77.3131 23.2162 77.2749 23.274 77.2175 23.3125L75.6678 24.2173C75.6104 24.2558 75.5338 24.2558 75.4764 24.2173L73.9267 23.3125C73.8693 23.274 73.8311 23.2162 73.8311 23.1392V21.3296C73.8311 21.2526 73.8693 21.1948 73.9267 21.1563L75.4764 20.2515Z" fill="#5FA04E"/>
<path d="M31.7207 12.0518C31.4145 11.8786 31.051 11.8786 30.7449 12.0518L22.6902 16.7299C22.3841 16.9032 22.2119 17.2304 22.2119 17.577V26.9523C22.2119 27.2989 22.4032 27.6261 22.6902 27.7994L30.7449 32.4775C31.051 32.6507 31.4145 32.6507 31.7207 32.4775L39.7753 27.7994C40.0815 27.6261 40.2536 27.2989 40.2536 26.9523V17.577C40.2536 17.2304 40.0623 16.9032 39.7753 16.7299L31.7207 12.0518Z" fill="url(#paint0_linear_1682_212)"/>
<path d="M39.7951 16.7313L31.7022 12.0532C31.6257 12.0147 31.53 11.9762 31.4535 11.957L22.3848 27.5698C22.4613 27.666 22.557 27.743 22.6526 27.8008L30.7456 32.4789C30.9752 32.6136 31.243 32.6521 31.4917 32.5751L40.0056 16.9046C39.9482 16.8276 39.8717 16.7698 39.7951 16.7313Z" fill="url(#paint1_linear_1682_212)"/>
<path d="M39.7947 27.7986C40.0243 27.6638 40.1965 27.4328 40.273 27.1825L31.4147 11.9355C31.1852 11.897 30.9364 11.9162 30.726 12.051L22.6904 16.7098L31.3573 32.6114C31.4721 32.5921 31.6061 32.5536 31.7209 32.4959L39.7947 27.7986Z" fill="url(#paint2_linear_1682_212)"/>
<path d="M42.2409 49.955C41.9539 49.955 41.686 49.878 41.4373 49.7432L38.8927 48.2224C38.5101 48.0106 38.7014 47.9336 38.8162 47.8951C39.3328 47.7218 39.4284 47.6833 39.9641 47.3753C40.0215 47.3368 40.0981 47.3561 40.1555 47.3946L42.107 48.5689C42.1835 48.6074 42.2791 48.6074 42.3365 48.5689L49.9705 44.1218C50.0465 44.0833 50.0855 44.0063 50.0855 43.9101V35.0352C50.0855 34.939 50.0465 34.862 49.9705 34.8235L42.3365 30.3957C42.26 30.3572 42.1643 30.3572 42.107 30.3957L34.4732 34.8235C34.3966 34.862 34.3584 34.9582 34.3584 35.0352V43.9101C34.3584 43.9871 34.3966 44.0833 34.4732 44.1218L36.5586 45.3347C37.6874 45.9122 38.3953 45.2384 38.3953 44.5646V35.8053C38.3953 35.6898 38.4909 35.5743 38.6249 35.5743H39.6006C39.7154 35.5743 39.8302 35.6705 39.8302 35.8053V44.5646C39.8302 46.0855 39.0075 46.971 37.5726 46.971C37.1326 46.971 36.7882 46.971 35.8124 46.4898L33.8035 45.3347C33.3061 45.0459 33 44.5069 33 43.9293V35.0545C33 34.4769 33.3061 33.9379 33.8035 33.6491L41.4373 29.2021C41.9156 28.9326 42.5661 28.9326 43.0444 29.2021L50.6785 33.6491C51.1755 33.9379 51.4815 34.4769 51.4815 35.0545V43.9293C51.4815 44.5069 51.1755 45.0459 50.6785 45.3347L43.0444 49.7817C42.8148 49.878 42.5279 49.955 42.2409 49.955Z" fill="#5FA04E"/>
<path d="M44.6135 43.8523C41.2649 43.8523 40.5762 42.3122 40.5762 41.0031C40.5762 40.8876 40.6718 40.7721 40.8057 40.7721H41.8006C41.9154 40.7721 42.0111 40.8491 42.0111 40.9646C42.1641 41.9849 42.6042 42.4855 44.6325 42.4855C46.2395 42.4855 46.9285 42.1197 46.9285 41.2534C46.9285 40.7529 46.7365 40.3871 44.2304 40.1368C42.145 39.925 40.844 39.463 40.844 37.7881C40.844 36.2288 42.145 35.3047 44.3261 35.3047C46.7755 35.3047 47.9805 36.1518 48.1335 37.9999C48.1335 38.0577 48.1145 38.1154 48.0765 38.1732C48.0375 38.2117 47.9805 38.2502 47.9225 38.2502H46.9085C46.8135 38.2502 46.7175 38.1732 46.6985 38.0769C46.4685 37.0181 45.8755 36.6716 44.307 36.6716C42.5468 36.6716 42.3363 37.2876 42.3363 37.7496C42.3363 38.3079 42.585 38.4812 44.9575 38.7892C47.3105 39.0972 48.4205 39.54 48.4205 41.1956C48.4205 42.8897 47.0235 43.8523 44.6135 43.8523Z" fill="#5FA04E"/>
<defs>
<linearGradient id="paint0_linear_1682_212" x1="34.5132" y1="15.5359" x2="27.1574" y2="30.4489" gradientUnits="userSpaceOnUse">
<stop stop-color="#3F873F"/>
<stop offset="0.3296" stop-color="#3F8B3D"/>
<stop offset="0.6367" stop-color="#3E9638"/>
<stop offset="0.9341" stop-color="#3DA92E"/>
<stop offset="1" stop-color="#3DAE2B"/>
</linearGradient>
<linearGradient id="paint1_linear_1682_212" x1="30.0093" y1="23.3608" x2="50.5333" y2="8.29034" gradientUnits="userSpaceOnUse">
<stop offset="0.1376" stop-color="#3F873F"/>
<stop offset="0.4016" stop-color="#52A044"/>
<stop offset="0.7129" stop-color="#64B749"/>
<stop offset="0.9081" stop-color="#6ABF4B"/>
</linearGradient>
<linearGradient id="paint2_linear_1682_212" x1="21.9168" y1="22.2608" x2="40.5549" y2="22.2608" gradientUnits="userSpaceOnUse">
<stop offset="0.0919165" stop-color="#6ABF4B"/>
<stop offset="0.2871" stop-color="#64B749"/>
<stop offset="0.5984" stop-color="#52A044"/>
<stop offset="0.8624" stop-color="#3F873F"/>
</linearGradient>
</defs>
</svg>
