<svg width="37" height="37" viewBox="0 0 37 37" fill="none" xmlns="http://www.w3.org/2000/svg">
<circle cx="18.5" cy="18.5" r="18.5" fill="#FFA500"/>
<ellipse cx="19.5" cy="19" rx="17.5" ry="17" fill="white"/>
<path d="M24.4094 13.1C24.2427 13.0833 24.1427 12.475 24.1094 11.275C24.176 10.9417 24.3094 10.5083 24.5094 9.975C24.7094 9.425 24.9927 8.78333 25.3594 8.05C25.4594 8.01667 25.5344 8 25.5844 8C25.8844 8 26.0344 8.30833 26.0344 8.925C25.8677 9.19167 25.701 9.46667 25.5344 9.75C25.3677 10.0167 25.2094 10.2833 25.0594 10.55C24.6094 11.4167 24.3927 12.2667 24.4094 13.1ZM17.3844 29.5C14.8344 29.5 12.8594 28.8917 11.4594 27.675C10.3094 26.6417 9.73438 25.325 9.73438 23.725C9.73438 21.925 10.476 20.4583 11.9594 19.325C13.2927 18.2917 14.8177 17.7667 16.5344 17.75C17.9677 17.75 19.0927 18.1167 19.9094 18.85C20.626 19.5167 20.9844 20.3333 20.9844 21.3C20.9844 22.2833 20.6344 23.125 19.9344 23.825C19.1344 24.5917 18.1177 24.975 16.8844 24.975C16.7344 24.975 16.6594 24.95 16.6594 24.9C16.6594 24.8 16.7344 24.7417 16.8844 24.725C17.4177 24.6083 17.8927 24.4417 18.3094 24.225C18.7427 24.0083 19.1094 23.725 19.4094 23.375C19.976 22.7583 20.2594 22.0417 20.2594 21.225C20.2594 20.325 19.9344 19.5917 19.2844 19.025C18.6177 18.4083 17.7344 18.1 16.6344 18.1C15.1344 18.1 13.8177 18.5917 12.6844 19.575C11.451 20.6083 10.8344 21.925 10.8344 23.525C10.8344 25.0917 11.3094 26.35 12.2594 27.3C13.3594 28.4667 15.0094 29.05 17.2094 29.05C19.3594 29.05 21.1594 28.4083 22.6094 27.125C24.1927 25.7583 24.9844 24.0333 24.9844 21.95C24.9844 20.4333 24.401 18.9917 23.2344 17.625L20.5094 14.825C20.0094 14.3083 19.6427 13.8 19.4094 13.3C19.1927 12.7833 19.0844 12.2917 19.0844 11.825C19.0844 10.7917 19.4844 9.96667 20.2844 9.35C21.051 8.73333 21.9427 8.425 22.9594 8.425C23.3594 8.425 23.7594 8.48333 24.1594 8.6C24.5594 8.71667 24.7594 8.85833 24.7594 9.025C24.7594 9.10833 24.7094 9.15 24.6094 9.15C24.5594 9.15 24.3594 9.075 24.0094 8.925C23.726 8.80833 23.4344 8.75 23.1344 8.75C22.3844 8.75 21.7177 9.025 21.1344 9.575C20.5677 10.1417 20.2844 10.7917 20.2844 11.525C20.2844 12.3583 20.676 13.1917 21.4594 14.025L24.0094 16.4C24.826 17.15 25.426 17.9667 25.8094 18.85C26.2094 19.7167 26.4094 20.6333 26.4094 21.6C26.4094 23.8333 25.451 25.7333 23.5344 27.3C21.7344 28.7667 19.6844 29.5 17.3844 29.5ZM23.4094 21.3C23.326 21.3333 23.2844 21.2833 23.2844 21.15C23.1677 20.3333 22.8344 19.5 22.2844 18.65C22.251 18.9 22.201 19.1833 22.1344 19.5C21.8177 19.55 21.5344 19.4417 21.2844 19.175C21.251 19.125 21.2094 19.05 21.1594 18.95C21.126 18.85 21.1094 18.7333 21.1094 18.6V18.425C21.1094 18.2417 21.1344 18.1167 21.1844 18.05C21.5344 18.3 21.826 18.4 22.0594 18.35C21.676 17.8 21.2344 17.3 20.7344 16.85C20.2344 16.3833 19.6927 15.9667 19.1094 15.6C17.8927 14.8667 16.8177 14.5 15.8844 14.5C14.8844 14.5 14.1927 14.9167 13.8094 15.75C13.9927 15.6167 14.176 15.55 14.3594 15.55C14.5594 15.55 14.751 15.6083 14.9344 15.725C15.2677 15.9583 15.426 16.225 15.4094 16.525C15.1927 16.425 14.9594 16.375 14.7094 16.375C14.2427 16.375 13.901 16.575 13.6844 16.975C13.501 16.6917 13.4094 16.45 13.4094 16.25C13.4094 16 13.526 15.6917 13.7594 15.325C14.2427 14.525 14.9927 14.125 16.0094 14.125C17.526 14.125 19.0927 14.875 20.7094 16.375C21.5427 17.1083 22.2177 17.8667 22.7344 18.65C23.251 19.4167 23.5094 20.2167 23.5094 21.05V21.125C23.5094 21.2083 23.476 21.2667 23.4094 21.3Z" fill="#C06511"/>
<path d="M24.4094 13.1L24.3845 13.3488L24.665 13.3768L24.6593 13.095L24.4094 13.1ZM24.1094 11.275L23.8642 11.226L23.8587 11.2537L23.8595 11.2819L24.1094 11.275ZM24.5094 9.975L24.7435 10.0628L24.7443 10.0604L24.5094 9.975ZM25.3594 8.05L25.2803 7.81283L25.1821 7.84557L25.1358 7.9382L25.3594 8.05ZM26.0344 8.925L26.2464 9.0575L26.2844 8.9967V8.925H26.0344ZM25.5344 9.75L25.7465 9.88255L25.7499 9.87675L25.5344 9.75ZM25.0594 10.55L24.8414 10.4274L24.8375 10.4348L25.0594 10.55ZM11.4594 27.675L11.2923 27.861L11.2954 27.8637L11.4594 27.675ZM11.9594 19.325L12.1112 19.5237L12.1125 19.5226L11.9594 19.325ZM16.5344 17.75V17.5L16.5319 17.5L16.5344 17.75ZM19.9094 18.85L20.0797 18.6669L20.0764 18.664L19.9094 18.85ZM19.9344 23.825L20.1074 24.0055L20.1112 24.0018L19.9344 23.825ZM16.8844 24.725L16.912 24.9735L16.925 24.972L16.9378 24.9692L16.8844 24.725ZM18.3094 24.225L18.1976 24.0014L18.194 24.0032L18.3094 24.225ZM19.4094 23.375L19.2252 23.2057L19.2196 23.2123L19.4094 23.375ZM19.2844 19.025L19.1145 19.2086L19.1201 19.2134L19.2844 19.025ZM12.6844 19.575L12.845 19.7667L12.8482 19.7638L12.6844 19.575ZM12.2594 27.3L12.4414 27.1284L12.4362 27.1232L12.2594 27.3ZM22.6094 27.125L22.446 26.9357L22.4437 26.9378L22.6094 27.125ZM23.2344 17.625L23.4245 17.4627L23.4192 17.4565L23.4135 17.4506L23.2344 17.625ZM20.5094 14.825L20.3297 14.9989L20.3302 14.9994L20.5094 14.825ZM19.4094 13.3L19.1786 13.3968L19.1828 13.4057L19.4094 13.3ZM20.2844 9.35L20.437 9.54804L20.4411 9.5448L20.2844 9.35ZM24.1594 8.6L24.2294 8.36L24.2294 8.36L24.1594 8.6ZM24.0094 8.925L24.1079 8.69519L24.1046 8.69383L24.0094 8.925ZM21.1344 9.575L20.9628 9.39302L20.9576 9.39822L21.1344 9.575ZM21.4594 14.025L21.2772 14.1962L21.2829 14.2023L21.289 14.2079L21.4594 14.025ZM24.0094 16.4L23.839 16.5829L23.8403 16.5841L24.0094 16.4ZM25.8094 18.85L25.58 18.9495L25.5824 18.9548L25.8094 18.85ZM23.5344 27.3L23.6923 27.4938L23.6926 27.4936L23.5344 27.3ZM23.4094 21.3L23.5022 21.5321L23.5119 21.5283L23.5212 21.5236L23.4094 21.3ZM23.2844 21.15H23.5344V21.1322L23.5319 21.1146L23.2844 21.15ZM22.2844 18.65L22.4943 18.5142L22.1261 17.9452L22.0366 18.617L22.2844 18.65ZM22.1344 19.5L22.1734 19.7469L22.3435 19.7201L22.379 19.5515L22.1344 19.5ZM21.2844 19.175L21.0764 19.3137L21.0878 19.3309L21.102 19.346L21.2844 19.175ZM21.1594 18.95L20.9222 19.0291L20.9278 19.0459L20.9358 19.0618L21.1594 18.95ZM21.1844 18.05L21.3297 17.8466L21.1309 17.7046L20.9844 17.9L21.1844 18.05ZM22.0594 18.35L22.1118 18.5944L22.4796 18.5156L22.2645 18.2071L22.0594 18.35ZM20.7344 16.85L20.5638 17.0328L20.5671 17.0358L20.7344 16.85ZM19.1094 15.6L19.2424 15.3883L19.2384 15.3859L19.1094 15.6ZM13.8094 15.75L13.5823 15.6455L13.1822 16.5153L13.9564 15.9522L13.8094 15.75ZM14.9344 15.725L15.0779 15.52L15.0686 15.5141L14.9344 15.725ZM15.4094 16.525L15.3046 16.752L15.6386 16.9061L15.659 16.5389L15.4094 16.525ZM13.6844 16.975L13.4745 17.1108L13.7035 17.4647L13.9042 17.0941L13.6844 16.975ZM13.7594 15.325L13.9703 15.4593L13.9734 15.4543L13.7594 15.325ZM20.7094 16.375L20.5393 16.5583L20.5442 16.5627L20.7094 16.375ZM22.7344 18.65L22.5257 18.7877L22.5271 18.7897L22.7344 18.65ZM24.4343 12.8512C24.4927 12.8571 24.5259 12.8879 24.5348 12.8976C24.5421 12.9057 24.5376 12.9038 24.5268 12.8785C24.5053 12.828 24.48 12.7362 24.4561 12.5907C24.4089 12.3037 24.3759 11.8652 24.3593 11.2681L23.8595 11.2819C23.8762 11.8848 23.9099 12.3505 23.9627 12.6718C23.9888 12.8304 24.0218 12.9689 24.0669 13.0747C24.0894 13.1274 24.1204 13.1852 24.1652 13.2344C24.2116 13.2853 24.2844 13.3387 24.3845 13.3488L24.4343 12.8512ZM24.3545 11.324C24.4174 11.0097 24.5455 10.5907 24.7435 10.0628L24.2753 9.88722C24.0733 10.426 23.9347 10.8736 23.8642 11.226L24.3545 11.324ZM24.7443 10.0604C24.94 9.5222 25.219 8.88968 25.583 8.1618L25.1358 7.9382C24.7664 8.67699 24.4787 9.3278 24.2744 9.88956L24.7443 10.0604ZM25.4384 8.28717C25.483 8.2723 25.5182 8.26248 25.5449 8.25655C25.573 8.2503 25.5846 8.25 25.5844 8.25V7.75C25.4915 7.75 25.384 7.77826 25.2803 7.81283L25.4384 8.28717ZM25.5844 8.25C25.6142 8.25 25.6294 8.25685 25.6399 8.26404C25.6524 8.27255 25.6737 8.29264 25.6971 8.34062C25.7471 8.44341 25.7844 8.62893 25.7844 8.925H26.2844C26.2844 8.6044 26.2467 8.32742 26.1467 8.12188C26.095 8.01569 26.0227 7.92016 25.9226 7.85158C25.8206 7.78169 25.7046 7.75 25.5844 7.75V8.25ZM25.8224 8.7925C25.6545 9.06115 25.4866 9.33807 25.3189 9.62324L25.7499 9.87675C25.9154 9.59526 26.0809 9.32218 26.2464 9.0575L25.8224 8.7925ZM25.3224 9.6175C25.1537 9.88734 24.9934 10.1573 24.8415 10.4274L25.2773 10.6726C25.4253 10.4093 25.5817 10.146 25.7464 9.8825L25.3224 9.6175ZM24.8375 10.4348C24.3716 11.3322 24.1418 12.2232 24.1594 13.105L24.6593 13.095C24.6436 12.3101 24.8472 11.5012 25.2813 10.6652L24.8375 10.4348ZM17.3844 29.25C14.872 29.25 12.9633 28.6508 11.6234 27.4863L11.2954 27.8637C12.7554 29.1326 14.7967 29.75 17.3844 29.75V29.25ZM11.6265 27.489C10.5313 26.505 9.98438 25.2569 9.98438 23.725H9.48438C9.48438 25.3931 10.0875 26.7784 11.2923 27.861L11.6265 27.489ZM9.98438 23.725C9.98438 22.0062 10.687 20.6117 12.1112 19.5237L11.8076 19.1263C10.265 20.3049 9.48438 21.8438 9.48438 23.725H9.98438ZM12.1125 19.5226C13.4019 18.5234 14.8737 18.0161 16.5368 18L16.5319 17.5C14.7617 17.5172 13.1836 18.06 11.8062 19.1274L12.1125 19.5226ZM16.5344 18C17.9254 18 18.9841 18.3552 19.7423 19.036L20.0764 18.664C19.2013 17.8782 18.0101 17.5 16.5344 17.5V18ZM19.7391 19.033C20.4056 19.6531 20.7344 20.4038 20.7344 21.3H21.2344C21.2344 20.2629 20.8464 19.3802 20.0797 18.667L19.7391 19.033ZM20.7344 21.3C20.7344 22.2165 20.4111 22.9948 19.7576 23.6482L20.1112 24.0018C20.8577 23.2552 21.2344 22.3501 21.2344 21.3H20.7344ZM19.7614 23.6445C19.0134 24.3614 18.0612 24.725 16.8844 24.725V25.225C18.1742 25.225 19.2554 24.822 20.1074 24.0055L19.7614 23.6445ZM16.8844 24.725C16.8533 24.725 16.8301 24.7237 16.8135 24.7218C16.7961 24.7199 16.7913 24.7179 16.7947 24.7191C16.7962 24.7196 16.822 24.7278 16.8502 24.756C16.8655 24.7713 16.8811 24.7922 16.8927 24.8191C16.9043 24.8463 16.9094 24.8741 16.9094 24.9H16.4094C16.4094 25.0911 16.5664 25.17 16.6366 25.1934C16.7132 25.2189 16.8021 25.225 16.8844 25.225V24.725ZM16.9094 24.9C16.9094 24.9068 16.9079 24.9217 16.8994 24.9398C16.8906 24.9583 16.8786 24.9712 16.8691 24.9786C16.8607 24.9851 16.8574 24.985 16.865 24.9825C16.8726 24.9799 16.8875 24.9762 16.912 24.9735L16.8568 24.4765C16.7604 24.4872 16.6516 24.5143 16.5621 24.5839C16.4601 24.6633 16.4094 24.7776 16.4094 24.9H16.9094ZM16.9378 24.9692C17.4893 24.8486 17.9856 24.6751 18.4247 24.4468L18.194 24.0032C17.7998 24.2082 17.3462 24.3681 16.831 24.4808L16.9378 24.9692ZM18.4212 24.4486C18.8828 24.2178 19.2764 23.9143 19.5992 23.5377L19.2196 23.2123C18.9423 23.5357 18.6026 23.7989 18.1976 24.0014L18.4212 24.4486ZM19.5935 23.5442C20.2013 22.8827 20.5094 22.1061 20.5094 21.225H20.0094C20.0094 21.9773 19.7508 22.634 19.2253 23.2058L19.5935 23.5442ZM20.5094 21.225C20.5094 20.2563 20.1558 19.453 19.4487 18.8366L19.1201 19.2134C19.713 19.7303 20.0094 20.3937 20.0094 21.225H20.5094ZM19.4541 18.8415C18.7319 18.1734 17.7833 17.85 16.6344 17.85V18.35C17.6855 18.35 18.5035 18.6432 19.1146 19.2085L19.4541 18.8415ZM16.6344 17.85C15.0742 17.85 13.6993 18.3634 12.5205 19.3862L12.8482 19.7638C13.9361 18.8199 15.1946 18.35 16.6344 18.35V17.85ZM12.5238 19.3834C11.2342 20.4639 10.5844 21.8506 10.5844 23.525H11.0844C11.0844 21.9994 11.6679 20.7528 12.8449 19.7666L12.5238 19.3834ZM10.5844 23.525C10.5844 25.1461 11.0779 26.4721 12.0826 27.4768L12.4362 27.1232C11.5408 26.2279 11.0844 25.0373 11.0844 23.525H10.5844ZM12.0775 27.4715C13.2402 28.7047 14.967 29.3 17.2094 29.3V28.8C15.0518 28.8 13.4785 28.2286 12.4413 27.1285L12.0775 27.4715ZM17.2094 29.3C19.4132 29.3 21.2742 28.6406 22.7751 27.3122L22.4437 26.9378C21.0445 28.1761 19.3056 28.8 17.2094 28.8V29.3ZM22.7727 27.3143C24.4108 25.9003 25.2344 24.1063 25.2344 21.95H24.7344C24.7344 23.9603 23.9746 25.6164 22.446 26.9357L22.7727 27.3143ZM25.2344 21.95C25.2344 20.3632 24.6223 18.8658 23.4245 17.4627L23.0442 17.7873C24.1798 19.1175 24.7344 20.5034 24.7344 21.95H25.2344ZM23.4135 17.4506L20.6885 14.6506L20.3302 14.9994L23.0552 17.7994L23.4135 17.4506ZM20.689 14.6511C20.2028 14.1487 19.8546 13.6628 19.6359 13.1943L19.1828 13.4057C19.4308 13.9372 19.8159 14.468 20.3297 14.9989L20.689 14.6511ZM19.6399 13.2033C19.4336 12.7113 19.3344 12.2525 19.3344 11.825H18.8344C18.8344 12.3308 18.9518 12.8554 19.1788 13.3967L19.6399 13.2033ZM19.3344 11.825C19.3344 10.8671 19.7 10.1161 20.437 9.548L20.1317 9.152C19.2687 9.81726 18.8344 10.7162 18.8344 11.825H19.3344ZM20.4411 9.5448C21.1617 8.96513 21.9976 8.675 22.9594 8.675V8.175C21.8878 8.175 20.9403 8.50154 20.1277 9.1552L20.4411 9.5448ZM22.9594 8.675C23.3347 8.675 23.7112 8.72969 24.0894 8.84L24.2294 8.36C23.8076 8.23698 23.384 8.175 22.9594 8.175V8.675ZM24.0894 8.84C24.2786 8.8952 24.398 8.95037 24.4649 8.99776C24.5316 9.045 24.5094 9.05604 24.5094 9.025H25.0094C25.0094 8.82729 24.8872 8.68417 24.7539 8.58974C24.6208 8.49547 24.4401 8.42146 24.2294 8.36L24.0894 8.84ZM24.5094 9.025C24.5094 9.02135 24.5099 9.00685 24.5179 8.98684C24.5265 8.9653 24.5413 8.94378 24.5618 8.92669C24.6004 8.89459 24.6308 8.9 24.6094 8.9V9.4C24.6879 9.4 24.7934 9.38458 24.8819 9.3108C24.9792 9.22976 25.0094 9.1184 25.0094 9.025H24.5094ZM24.6094 8.9C24.6383 8.9 24.6493 8.9066 24.6156 8.89648C24.592 8.8894 24.5572 8.87751 24.5097 8.85967C24.415 8.82417 24.2816 8.76967 24.1079 8.69521L23.9109 9.15479C24.0872 9.23033 24.2288 9.28833 24.3341 9.32783C24.3865 9.34748 24.433 9.36372 24.4719 9.37539C24.5007 9.38403 24.5554 9.4 24.6094 9.4V8.9ZM24.1046 8.69383C23.7917 8.565 23.4677 8.5 23.1344 8.5V9C23.401 9 23.6604 9.05166 23.9142 9.15617L24.1046 8.69383ZM23.1344 8.5C22.3159 8.5 21.5891 8.80267 20.9629 9.3931L21.3059 9.7569C21.8463 9.24733 22.4528 9 23.1344 9V8.5ZM20.9576 9.39822C20.3488 10.007 20.0344 10.7189 20.0344 11.525H20.5344C20.5344 10.8644 20.7866 10.2763 21.3112 9.75178L20.9576 9.39822ZM20.0344 11.525C20.0344 12.4425 20.4667 13.334 21.2772 14.1962L21.6415 13.8538C20.8853 13.0493 20.5344 12.2742 20.5344 11.525H20.0344ZM21.289 14.2079L23.839 16.5829L24.1798 16.2171L21.6298 13.8421L21.289 14.2079ZM23.8403 16.5841C24.635 17.314 25.2126 18.1028 25.58 18.9495L26.0387 18.7505C25.6395 17.8305 25.017 16.986 24.1785 16.2159L23.8403 16.5841ZM25.5824 18.9548C25.967 19.7882 26.1594 20.669 26.1594 21.6H26.6594C26.6594 20.5976 26.4517 19.6452 26.0364 18.7452L25.5824 18.9548ZM26.1594 21.6C26.1594 23.7495 25.2419 25.5814 23.3762 27.1064L23.6926 27.4936C25.6602 25.8853 26.6594 23.9171 26.6594 21.6H26.1594ZM23.3765 27.1062C21.6206 28.5369 19.6262 29.25 17.3844 29.25V29.75C19.7425 29.75 21.8482 28.9964 23.6923 27.4938L23.3765 27.1062ZM23.3165 21.0679C23.3197 21.0666 23.3465 21.0561 23.3877 21.0616C23.4364 21.0681 23.4794 21.0935 23.5077 21.1275C23.5199 21.1421 23.5269 21.1554 23.5307 21.1639C23.5344 21.1724 23.5358 21.178 23.536 21.179C23.5362 21.18 23.5344 21.1718 23.5344 21.15H23.0344C23.0344 21.2238 23.0421 21.3497 23.1236 21.4475C23.1727 21.5065 23.2417 21.5465 23.3216 21.5572C23.3942 21.5669 23.4574 21.55 23.5022 21.5321L23.3165 21.0679ZM23.5319 21.1146C23.4091 20.255 23.0596 19.3878 22.4943 18.5142L22.0745 18.7858C22.6092 19.6122 22.9264 20.4117 23.0369 21.1854L23.5319 21.1146ZM22.0366 18.617C22.0043 18.8593 21.9555 19.1363 21.8897 19.4485L22.379 19.5515C22.4466 19.2303 22.4978 18.9407 22.5322 18.683L22.0366 18.617ZM22.0954 19.2531C21.873 19.2882 21.6693 19.2201 21.4668 19.004L21.102 19.346C21.3994 19.6632 21.7624 19.8118 22.1734 19.7469L22.0954 19.2531ZM21.4924 19.0363C21.4678 18.9994 21.4316 18.9354 21.383 18.8382L20.9358 19.0618C20.9872 19.1646 21.0343 19.2506 21.0764 19.3137L21.4924 19.0363ZM21.3965 18.8709C21.3736 18.8022 21.3594 18.7132 21.3594 18.6H20.8594C20.8594 18.7534 20.8785 18.8978 20.9222 19.0291L21.3965 18.8709ZM21.3594 18.6V18.425H20.8594V18.6H21.3594ZM21.3594 18.425C21.3594 18.3433 21.3651 18.2838 21.3733 18.2428C21.382 18.1993 21.3905 18.1919 21.3844 18.2L20.9844 17.9C20.9283 17.9748 20.8993 18.0632 20.883 18.1447C20.8662 18.2287 20.8594 18.3234 20.8594 18.425H21.3594ZM21.0391 18.2534C21.4038 18.5139 21.7714 18.6674 22.1118 18.5944L22.007 18.1055C21.8807 18.1326 21.665 18.0861 21.3297 17.8466L21.0391 18.2534ZM22.2645 18.2071C21.8702 17.6413 21.4158 17.1269 20.9016 16.6642L20.5671 17.0358C21.053 17.4731 21.4819 17.9587 21.8543 18.4929L22.2645 18.2071ZM20.905 16.6672C20.3933 16.1897 19.8391 15.7634 19.2424 15.3883L18.9763 15.8117C19.5464 16.17 20.0755 16.577 20.5638 17.0328L20.905 16.6672ZM19.2384 15.3859C18.0016 14.6404 16.881 14.25 15.8844 14.25V14.75C16.7544 14.75 17.7838 15.0929 18.9803 15.8141L19.2384 15.3859ZM15.8844 14.25C15.3497 14.25 14.8797 14.3616 14.4866 14.5984C14.0922 14.836 13.7919 15.1897 13.5823 15.6455L14.0365 15.8545C14.2101 15.477 14.4474 15.2057 14.7446 15.0266C15.0432 14.8468 15.4191 14.75 15.8844 14.75V14.25ZM13.9564 15.9522C14.1073 15.8425 14.2403 15.8 14.3594 15.8V15.3C14.1118 15.3 13.8781 15.3909 13.6623 15.5478L13.9564 15.9522ZM14.3594 15.8C14.5077 15.8 14.6533 15.8425 14.8002 15.9359L15.0686 15.5141C14.8488 15.3742 14.611 15.3 14.3594 15.3V15.8ZM14.791 15.9298C15.0815 16.1332 15.17 16.3269 15.1598 16.5111L15.659 16.5389C15.6821 16.1231 15.4539 15.7835 15.0777 15.5202L14.791 15.9298ZM15.5141 16.298C15.2631 16.1821 14.9938 16.125 14.7094 16.125V16.625C14.925 16.625 15.1224 16.6679 15.3046 16.752L15.5141 16.298ZM14.7094 16.125C14.4396 16.125 14.1923 16.1831 13.9768 16.3092C13.761 16.4356 13.5913 16.6219 13.4646 16.8559L13.9042 17.0941C13.9941 16.9281 14.1036 16.8144 14.2294 16.7408C14.3556 16.6669 14.5124 16.625 14.7094 16.625V16.125ZM13.8943 16.8392C13.7211 16.5715 13.6594 16.379 13.6594 16.25H13.1594C13.1594 16.521 13.281 16.8118 13.4745 17.1108L13.8943 16.8392ZM13.6594 16.25C13.6594 16.0711 13.7459 15.8118 13.9703 15.4592L13.5485 15.1908C13.3062 15.5715 13.1594 15.9289 13.1594 16.25H13.6594ZM13.9734 15.4543C14.4068 14.7368 15.071 14.375 16.0094 14.375V13.875C14.9144 13.875 14.0786 14.3132 13.5454 15.1957L13.9734 15.4543ZM16.0094 14.375C17.4394 14.375 18.9481 15.0819 20.5393 16.5583L20.8794 16.1917C19.2373 14.6681 17.6126 13.875 16.0094 13.875V14.375ZM20.5442 16.5627C21.3638 17.2839 22.0232 18.0259 22.5257 18.7876L22.9431 18.5124C22.4122 17.7075 21.7216 16.9327 20.8745 16.1873L20.5442 16.5627ZM22.5271 18.7897C23.0191 19.5198 23.2594 20.2718 23.2594 21.05H23.7594C23.7594 20.1615 23.483 19.3135 22.9417 18.5103L22.5271 18.7897ZM23.2594 21.05V21.125H23.7594V21.05H23.2594ZM23.2594 21.125C23.2594 21.1335 23.2578 21.1239 23.2673 21.1072C23.2719 21.0991 23.2778 21.0919 23.2842 21.086C23.2904 21.0803 23.2955 21.0774 23.2976 21.0764L23.5212 21.5236C23.5936 21.4874 23.6576 21.4319 23.7014 21.3553C23.7443 21.2803 23.7594 21.1998 23.7594 21.125H23.2594Z" fill="black"/>
</svg>
